<svg height="1774" width="720" xmlns="http://www.w3.org/2000/svg">
<rect height="1774" fill="#555" width="720"></rect>
<text fill="#7f7" font-family="Courier New" font-size="12" xml:space="preserve">
<tspan x="10" y="26">20 megabytes installed</tspan>
<tspan x="10" y="42"></tspan>
<tspan x="10" y="58">node_modules</tspan>
<tspan x="10" y="74">└─┬ cash@0.8.0 </tspan>
<tspan x="10" y="90">  ├── array-shuffle@1.0.1 </tspan>
<tspan x="10" y="106">  ├─┬ chalk@1.1.3 </tspan>
<tspan x="10" y="122">  │ ├── ansi-styles@2.2.1 </tspan>
<tspan x="10" y="138">  │ ├── escape-string-regexp@1.0.5 </tspan>
<tspan x="10" y="154">  │ ├─┬ has-ansi@2.0.0 </tspan>
<tspan x="10" y="170">  │ │ └── ansi-regex@2.1.1 </tspan>
<tspan x="10" y="186">  │ ├── strip-ansi@3.0.1 </tspan>
<tspan x="10" y="202">  │ └── supports-color@2.0.0 </tspan>
<tspan x="10" y="218">  ├── filesize@3.5.6 </tspan>
<tspan x="10" y="234">  ├─┬ fkill@3.1.0 </tspan>
<tspan x="10" y="250">  │ ├── arrify@1.0.1 </tspan>
<tspan x="10" y="266">  │ ├── pify@2.3.0 </tspan>
<tspan x="10" y="282">  │ ├─┬ pinkie-promise@2.0.1 </tspan>
<tspan x="10" y="298">  │ │ └── pinkie@2.0.4 </tspan>
<tspan x="10" y="314">  │ └── taskkill@1.0.0 </tspan>
<tspan x="10" y="330">  ├─┬ fs-extra@0.23.1 </tspan>
<tspan x="10" y="346">  │ ├── graceful-fs@4.1.11 </tspan>
<tspan x="10" y="362">  │ ├── jsonfile@2.4.0 </tspan>
<tspan x="10" y="378">  │ ├── path-is-absolute@1.0.1 </tspan>
<tspan x="10" y="394">  │ └─┬ rimraf@2.6.1 </tspan>
<tspan x="10" y="410">  │   └─┬ glob@7.1.1 </tspan>
<tspan x="10" y="426">  │     └── fs.realpath@1.0.0 </tspan>
<tspan x="10" y="442">  ├─┬ glob@6.0.4 </tspan>
<tspan x="10" y="458">  │ ├─┬ inflight@1.0.6 </tspan>
<tspan x="10" y="474">  │ │ └── wrappy@1.0.2 </tspan>
<tspan x="10" y="490">  │ ├── inherits@2.0.3 </tspan>
<tspan x="10" y="506">  │ ├─┬ minimatch@3.0.3 </tspan>
<tspan x="10" y="522">  │ │ └─┬ brace-expansion@1.1.7 </tspan>
<tspan x="10" y="538">  │ │   ├── balanced-match@0.4.2 </tspan>
<tspan x="10" y="554">  │ │   └── concat-map@0.0.1 </tspan>
<tspan x="10" y="570">  │ └── once@1.4.0 </tspan>
<tspan x="10" y="586">  ├── lodash@4.17.4 </tspan>
<tspan x="10" y="602">  ├── minimist@1.2.0 </tspan>
<tspan x="10" y="618">  ├─┬ user-home@2.0.0 </tspan>
<tspan x="10" y="634">  │ └── os-homedir@1.0.2 </tspan>
<tspan x="10" y="650">  ├─┬ username@1.0.1 </tspan>
<tspan x="10" y="666">  │ └─┬ meow@3.7.0 </tspan>
<tspan x="10" y="682">  │   ├─┬ camelcase-keys@2.1.0 </tspan>
<tspan x="10" y="698">  │   │ └── camelcase@2.1.1 </tspan>
<tspan x="10" y="714">  │   ├── decamelize@1.2.0 </tspan>
<tspan x="10" y="730">  │   ├─┬ loud-rejection@1.6.0 </tspan>
<tspan x="10" y="746">  │   │ ├─┬ currently-unhandled@0.4.1 </tspan>
<tspan x="10" y="762">  │   │ │ └── array-find-index@1.0.2 </tspan>
<tspan x="10" y="778">  │   │ └── signal-exit@3.0.2 </tspan>
<tspan x="10" y="794">  │   ├── map-obj@1.0.1 </tspan>
<tspan x="10" y="810">  │   ├─┬ normalize-package-data@2.3.6 </tspan>
<tspan x="10" y="826">  │   │ ├── hosted-git-info@2.4.2 </tspan>
<tspan x="10" y="842">  │   │ ├─┬ is-builtin-module@1.0.0 </tspan>
<tspan x="10" y="858">  │   │ │ └── builtin-modules@1.1.1 </tspan>
<tspan x="10" y="874">  │   │ ├── semver@5.3.0 </tspan>
<tspan x="10" y="890">  │   │ └─┬ validate-npm-package-license@3.0.1 </tspan>
<tspan x="10" y="906">  │   │   ├─┬ spdx-correct@1.0.2 </tspan>
<tspan x="10" y="922">  │   │   │ └── spdx-license-ids@1.2.2 </tspan>
<tspan x="10" y="938">  │   │   └── spdx-expression-parse@1.0.4 </tspan>
<tspan x="10" y="954">  │   ├── object-assign@4.1.1 </tspan>
<tspan x="10" y="970">  │   ├─┬ read-pkg-up@1.0.1 </tspan>
<tspan x="10" y="986">  │   │ ├─┬ find-up@1.1.2 </tspan>
<tspan x="10" y="1002">  │   │ │ └── path-exists@2.1.0 </tspan>
<tspan x="10" y="1018">  │   │ └─┬ read-pkg@1.1.0 </tspan>
<tspan x="10" y="1034">  │   │   ├─┬ load-json-file@1.1.0 </tspan>
<tspan x="10" y="1050">  │   │   │ ├─┬ parse-json@2.2.0 </tspan>
<tspan x="10" y="1066">  │   │   │ │ └─┬ error-ex@1.3.1 </tspan>
<tspan x="10" y="1082">  │   │   │ │   └── is-arrayish@0.2.1 </tspan>
<tspan x="10" y="1098">  │   │   │ └─┬ strip-bom@2.0.0 </tspan>
<tspan x="10" y="1114">  │   │   │   └── is-utf8@0.2.1 </tspan>
<tspan x="10" y="1130">  │   │   └── path-type@1.1.0 </tspan>
<tspan x="10" y="1146">  │   ├─┬ redent@1.0.0 </tspan>
<tspan x="10" y="1162">  │   │ ├─┬ indent-string@2.1.0 </tspan>
<tspan x="10" y="1178">  │   │ │ └─┬ repeating@2.0.1 </tspan>
<tspan x="10" y="1194">  │   │ │   └── is-finite@1.0.2 </tspan>
<tspan x="10" y="1210">  │   │ └─┬ strip-indent@1.0.1 </tspan>
<tspan x="10" y="1226">  │   │   └── get-stdin@4.0.1 </tspan>
<tspan x="10" y="1242">  │   └── trim-newlines@1.0.0 </tspan>
<tspan x="10" y="1258">  ├─┬ vorpal@1.12.0 </tspan>
<tspan x="10" y="1274">  │ ├─┬ babel-polyfill@6.23.0 </tspan>
<tspan x="10" y="1290">  │ │ ├── babel-runtime@6.23.0 </tspan>
<tspan x="10" y="1306">  │ │ ├── core-js@2.4.1 </tspan>
<tspan x="10" y="1322">  │ │ └── regenerator-runtime@0.10.3 </tspan>
<tspan x="10" y="1338">  │ ├── in-publish@2.0.0 </tspan>
<tspan x="10" y="1354">  │ ├─┬ inquirer@0.11.0 </tspan>
<tspan x="10" y="1370">  │ │ ├── ansi-escapes@1.4.0 </tspan>
<tspan x="10" y="1386">  │ │ ├─┬ cli-cursor@1.0.2 </tspan>
<tspan x="10" y="1402">  │ │ │ └─┬ restore-cursor@1.0.1 </tspan>
<tspan x="10" y="1418">  │ │ │   ├── exit-hook@1.1.1 </tspan>
<tspan x="10" y="1434">  │ │ │   └── onetime@1.1.0 </tspan>
<tspan x="10" y="1450">  │ │ ├── cli-width@1.1.1 </tspan>
<tspan x="10" y="1466">  │ │ ├── figures@1.7.0 </tspan>
<tspan x="10" y="1482">  │ │ ├── lodash@3.10.1 </tspan>
<tspan x="10" y="1498">  │ │ ├─┬ readline2@1.0.1 </tspan>
<tspan x="10" y="1514">  │ │ │ ├── code-point-at@1.1.0 </tspan>
<tspan x="10" y="1530">  │ │ │ ├─┬ is-fullwidth-code-point@1.0.0 </tspan>
<tspan x="10" y="1546">  │ │ │ │ └── number-is-nan@1.0.1 </tspan>
<tspan x="10" y="1562">  │ │ │ └── mute-stream@0.0.5 </tspan>
<tspan x="10" y="1578">  │ │ ├── run-async@0.1.0 </tspan>
<tspan x="10" y="1594">  │ │ ├── rx-lite@3.1.2 </tspan>
<tspan x="10" y="1610">  │ │ └── through@2.3.8 </tspan>
<tspan x="10" y="1626">  │ ├── log-update@1.0.2 </tspan>
<tspan x="10" y="1642">  │ ├── node-localstorage@0.6.0 </tspan>
<tspan x="10" y="1658">  │ └─┬ wrap-ansi@2.1.0 </tspan>
<tspan x="10" y="1674">  │   └── string-width@1.0.2 </tspan>
<tspan x="10" y="1690">  ├── vorpal-autocomplete-fs@0.0.3 </tspan>
<tspan x="10" y="1706">  ├─┬ vorpal-grep@0.1.2 </tspan>
<tspan x="10" y="1722">  │ └── glob@5.0.15 </tspan>
<tspan x="10" y="1738">  └─┬ vorpal-less@0.0.13 </tspan>
<tspan x="10" y="1754">    └── slice-ansi@0.0.3</tspan>
</text>
</svg>
